<svg xmlns="http://www.w3.org/2000/svg" width="340.155" height="200.814" viewBox="0 0 340.155 200.814">
  <g id="yash-logo" transform="translate(0 0.004)">
    <path id="Path_1" data-name="Path 1" d="M194.832,105.746V103.26q.095,0,.189,0,2.83,0,3.941-3.665l2.588.385a7.729,7.729,0,0,1-2.343,4.312,6.232,6.232,0,0,1-4.2,1.452l-.171,0Zm0-8.549h0v-2.49h4.141a6.74,6.74,0,0,0-1-3.458,3.688,3.688,0,0,0-3.092-1.665h-.049V87.1h.066a5.944,5.944,0,0,1,4.808,2.384,10.774,10.774,0,0,1,1.928,6.907l-.012.809Zm10.648,2.821h0l2.491-.47a4.367,4.367,0,0,0,1.209,2.8,4.314,4.314,0,0,0,5.159.121,2.6,2.6,0,0,0,.9-2.025,1.961,1.961,0,0,0-.771-1.651,9.79,9.79,0,0,0-2.554-1.006,18.78,18.78,0,0,1-3.922-1.514,4.26,4.26,0,0,1-1.536-1.662,5.043,5.043,0,0,1-.542-2.368,4.941,4.941,0,0,1,1.479-3.716A5.688,5.688,0,0,1,211.5,87.1a6.794,6.794,0,0,1,2.9.591,4.6,4.6,0,0,1,1.923,1.577,6.831,6.831,0,0,1,.918,2.837l-2.457.407a2.883,2.883,0,0,0-.95-2.17,2.974,2.974,0,0,0-2.273-.755,3.861,3.861,0,0,0-2.44.648,2.036,2.036,0,0,0-.795,1.653,1.856,1.856,0,0,0,.761,1.565,13.684,13.684,0,0,0,2.73,1.073,21.888,21.888,0,0,1,4.045,1.572,4.015,4.015,0,0,1,1.431,1.583,5.207,5.207,0,0,1,.513,2.375,5.485,5.485,0,0,1-1.647,4.134,6.242,6.242,0,0,1-4.5,1.577q-5.341,0-6.191-5.746ZM194.832,87.1h0v2.488A3.691,3.691,0,0,0,192,90.975a5.964,5.964,0,0,0-1.308,3.733h4.141V97.2h-4.3a7.666,7.666,0,0,0,1.414,4.536,3.869,3.869,0,0,0,2.884,1.527v2.486a6.292,6.292,0,0,1-4.94-2.355,10.479,10.479,0,0,1-1.949-6.814,10.973,10.973,0,0,1,1.967-7.049,6.158,6.158,0,0,1,4.922-2.431Zm-26.061,25.49h0v-2.511a3.9,3.9,0,0,0,2.311-.772,4.021,4.021,0,0,0,1.339-2.328,22.105,22.105,0,0,0,.221-3.963,5.791,5.791,0,0,1-1.839,1.743,4.419,4.419,0,0,1-2.032.586v-2.5a3.537,3.537,0,0,0,2.882-1.577,8.4,8.4,0,0,0,1.192-5.024,8.3,8.3,0,0,0-1.227-5,3.639,3.639,0,0,0-2.846-1.638V87.1a4.547,4.547,0,0,1,2.172.636,5.917,5.917,0,0,1,1.92,1.916V87.5h2.316v15.422a17.917,17.917,0,0,1-.68,5.874,5.706,5.706,0,0,1-2.23,2.769,6.531,6.531,0,0,1-3.5,1.018Zm11.944-28.392h0V80.713h2.508v3.481Zm0,21.152h0V87.5h2.508v17.843ZM168.771,87.1h0v2.5l-.139,0a3.381,3.381,0,0,0-2.752,1.641,8.3,8.3,0,0,0-1.183,4.863,8.791,8.791,0,0,0,1.174,5.122,3.47,3.47,0,0,0,2.883,1.611h.017v2.5c-.077,0-.159.005-.238.005a5.41,5.41,0,0,1-4.419-2.22,10.764,10.764,0,0,1-2.014-6.836,13.085,13.085,0,0,1,.891-5.025,6.927,6.927,0,0,1,2.328-3.16,5.514,5.514,0,0,1,3.23-1.009c.075,0,.15,0,.222.005Zm0,22.973h0v2.511c-.079,0-.159,0-.238,0a6.059,6.059,0,0,1-4.436-1.533,5.531,5.531,0,0,1-1.5-4.233l2.456.437a3.092,3.092,0,0,0,1.025,2.127,3.651,3.651,0,0,0,2.369.693c.112,0,.22,0,.326-.007Zm-17.316-4.327h0v-2.486h.065a3.706,3.706,0,0,0,3.044-1.709,10.953,10.953,0,0,0-.005-10.265,3.856,3.856,0,0,0-3.1-1.686V87.1h0a6.242,6.242,0,0,1,4.959,2.356,10.187,10.187,0,0,1,2,6.786,10.982,10.982,0,0,1-1.961,7.158,6.211,6.211,0,0,1-4.994,2.352Zm0-18.651h0V89.6h-.069a3.726,3.726,0,0,0-3.055,1.7,11.044,11.044,0,0,0,.018,10.272,3.847,3.847,0,0,0,3.107,1.69v2.486a6.229,6.229,0,0,1-4.97-2.358,10.58,10.58,0,0,1-1.99-6.969,10.6,10.6,0,0,1,1.973-6.969,6.215,6.215,0,0,1,4.987-2.355Zm-25.719,18.651h0v-2.486h.064a3.7,3.7,0,0,0,3.043-1.709,10.944,10.944,0,0,0,0-10.265,3.855,3.855,0,0,0-3.1-1.686V87.1h0a6.24,6.24,0,0,1,4.958,2.356,10.187,10.187,0,0,1,2,6.786,10.982,10.982,0,0,1-1.962,7.158A6.21,6.21,0,0,1,125.736,105.749Zm11.553-.4h0V80.713h2.5v24.634ZM125.736,87.1h0V89.6h-.07a3.73,3.73,0,0,0-3.057,1.7,11.059,11.059,0,0,0,.017,10.272,3.854,3.854,0,0,0,3.109,1.69v2.486a6.229,6.229,0,0,1-4.971-2.358,10.581,10.581,0,0,1-1.991-6.969,10.613,10.613,0,0,1,1.973-6.969,6.217,6.217,0,0,1,4.989-2.356ZM56.783,105.746h0V103.26c.062,0,.126,0,.188,0q2.83,0,3.941-3.665l2.59.385a7.739,7.739,0,0,1-2.346,4.312,6.226,6.226,0,0,1-4.2,1.452Zm0-8.549h0v-2.49h4.14a6.733,6.733,0,0,0-1-3.458,3.684,3.684,0,0,0-3.09-1.665h-.049V87.1h.066a5.943,5.943,0,0,1,4.808,2.384,10.771,10.771,0,0,1,1.927,6.907l-.012.809Zm21.34,1.611h0l2.474.39a8.077,8.077,0,0,1-2.142,4.87,5.65,5.65,0,0,1-4.116,1.681,5.887,5.887,0,0,1-4.8-2.358A11.019,11.019,0,0,1,67.653,96.4a10.851,10.851,0,0,1,1.9-6.98A6.041,6.041,0,0,1,74.44,87.1a5.61,5.61,0,0,1,3.882,1.411,6.922,6.922,0,0,1,2.02,4.237L77.9,93.2a5.181,5.181,0,0,0-1.245-2.712,2.867,2.867,0,0,0-2.131-.9,3.7,3.7,0,0,0-3.079,1.624,8.638,8.638,0,0,0-1.217,5.149,9.235,9.235,0,0,0,1.17,5.276,3.538,3.538,0,0,0,2.991,1.63,3.229,3.229,0,0,0,2.445-1.082A5.876,5.876,0,0,0,78.124,98.808Zm6.3,6.539h0V80.713h2.509v8.838a6.276,6.276,0,0,1,2-1.841,5.065,5.065,0,0,1,2.468-.613,4.854,4.854,0,0,1,3.742,1.49q1.373,1.48,1.375,5.448v11.311h-2.51V94.036a5.216,5.216,0,0,0-.838-3.325,2.821,2.821,0,0,0-2.3-1.011A3.607,3.607,0,0,0,88.088,91a6.964,6.964,0,0,0-1.153,4.589v9.762Zm17.642,0h0V87.5h2.269v2.535a5.863,5.863,0,0,1,2-2.209,5.091,5.091,0,0,1,2.724-.733,5.247,5.247,0,0,1,2.207.464,4.538,4.538,0,0,1,1.635,1.211,4.856,4.856,0,0,1,.932,1.938,16.056,16.056,0,0,1,.308,3.665v10.971H111.62V94.489a8.683,8.683,0,0,0-.343-2.873,2.829,2.829,0,0,0-2.742-1.9,3.522,3.522,0,0,0-2.88,1.33,7.362,7.362,0,0,0-1.077,4.553v9.746Zm-61.737,0h0V83.622H33.581V80.713h16.25v2.908H43.044v21.725ZM56.783,87.1h0v2.488a3.689,3.689,0,0,0-2.832,1.39,5.973,5.973,0,0,0-1.309,3.733h4.141V97.2h-4.3a7.661,7.661,0,0,0,1.414,4.536,3.873,3.873,0,0,0,2.884,1.527v2.486a6.29,6.29,0,0,1-4.938-2.355,10.472,10.472,0,0,1-1.951-6.814,10.974,10.974,0,0,1,1.968-7.049A6.156,6.156,0,0,1,56.783,87.1Z" transform="translate(-18.603 16.862)" fill="#a89044"/>
    <path id="Path_2" data-name="Path 2" d="M146.26,66.787h0l18.319-1.124a12.539,12.539,0,0,0,1.8,6.666,9.239,9.239,0,0,0,8.116,3.7,10.177,10.177,0,0,0,6.488-1.89,6.3,6.3,0,0,0,2.607-4.392,5.058,5.058,0,0,0-1.718-4.249c-1.3-1.252-4.451-2.431-9.486-3.539q-12.336-2.793-17.282-7.4a13.543,13.543,0,0,1-4.336-11.783,17.212,17.212,0,0,1,3.58-8.9,20.905,20.905,0,0,1,8.921-6.58A41.217,41.217,0,0,1,178.719,24.9q11.879,0,17.718,4.349t6.156,13.842l-18.139,1.038a8.573,8.573,0,0,0-2.484-6,9.133,9.133,0,0,0-6.176-1.862,8.266,8.266,0,0,0-5.161,1.392,4.73,4.73,0,0,0-2,3.4,3.073,3.073,0,0,0,1.146,2.615c.835.809,2.9,1.549,6.229,2.246q12.3,2.664,17.479,5.4a15.186,15.186,0,0,1,8.944,15.8,20.8,20.8,0,0,1-4.289,10.816,23.272,23.272,0,0,1-9.9,7.52A39.489,39.489,0,0,1,173.1,88.021q-15.792,0-21.334-6a21.367,21.367,0,0,1-5.506-15.236ZM214.746,25.94h19.139L231.939,47.3h20.927l1.947-21.361h19.225l-5.561,61.043H249.251L251.5,62.3H230.573l-2.249,24.688H209.185l5.561-61.043Zm-131.93,0h7.473l-7.473,9.7Zm28.175,50.966V63.7h6.829l-4.852-21.945-1.977,4.927V25.94h14.061l17.733,61.043H122.752l-2.125-10.077Zm0-50.966h-6.808L82.816,71.166V86.983H94.9l3.918-10.077h12.172V63.7h-6.83l6.83-17.018Zm-88.1,0h21.26L54.777,46.549,69.159,25.94H82.816v9.7L62.97,61.414,60.642,86.983H41.459l2.329-25.569ZM82.816,71.166h0L75.343,86.983h7.473Z" transform="translate(-22.889 -3.733)" fill="#e23827"/>
    <path id="Path_3" data-name="Path 3" d="M110.045,25.6l17.734,61.052H107.747l-2.129-10.076H95.981V63.368h6.836L97.956,41.42l-1.975,4.928V25.6ZM89.159,63.368l6.822-17.02V25.6H89.173L67.81,70.835V86.654H79.9l3.908-10.076H95.981V63.368ZM60.33,86.654h7.48V70.835Z" transform="translate(-8.396 -3.456)" fill="#e23827"/>
    <path id="Path_4" data-name="Path 4" d="M193.646,16.973c41.567,1.044,93.723,9.362,96.5,38.023,5.059,52.26-127.211,97.215-202.929,112.9,69.629-9.407,146.249-29.108,206.9-65.855,26.777-16.226,49.376-41.482,35.342-61.153C308.007,10.813,225.68,15.143,193.646,16.973Z" transform="translate(0.197 -7.242)" fill="#005ba1" fill-rule="evenodd"/>
    <path id="Path_5" data-name="Path 5" d="M255.2,17.422a7.984,7.984,0,1,1,7.983,7.867A7.926,7.926,0,0,1,255.2,17.422Zm14.666,0a6.6,6.6,0,0,0-4.955-6.359,6.724,6.724,0,0,0-7.516,3.071,6.513,6.513,0,0,0,1.065,7.948,6.752,6.752,0,0,0,7.284,1.429A6.582,6.582,0,0,0,269.87,17.422Zm-4.191,4.747-2.5-4.164h-1.421v4.164h-1.407V12.476h2.521q3.55,0,3.551,2.682a2.692,2.692,0,0,1-1.907,2.637l2.688,4.374Zm-3.918-8.5v3.22q.179.023.923.023a3.414,3.414,0,0,0,1.847-.344A1.53,1.53,0,0,0,265,15.252q0-1.6-2.13-1.6h-.557Z" transform="translate(67.527 -9.559)" fill="#231f20"/>
    <path id="Path_6" data-name="Path 6" d="M35.2,157.1H31.234L30.5,140.348,27.266,157.1H23.491l4.246-20.043H33.7l.624,14.041,6.938-14.041H47.3L43.043,157.1H39.227l4.01-16.626Z" transform="translate(-22.647 37.82)" fill="#005ba1"/>
    <path id="Path_7" data-name="Path 7" d="M40.6,149.643a8.886,8.886,0,0,1,2.31-6.433,8.044,8.044,0,0,1,6.071-2.4,7.02,7.02,0,0,1,5.093,1.772,6.317,6.317,0,0,1,1.832,4.764,8.865,8.865,0,0,1-2.289,6.1,7.807,7.807,0,0,1-6.133,2.57,8.018,8.018,0,0,1-3.691-.82,5.4,5.4,0,0,1-2.4-2.324A6.825,6.825,0,0,1,40.6,149.643Zm11.351-2.8a3.049,3.049,0,0,0-.826-2.236,2.852,2.852,0,0,0-2.13-.841,3.6,3.6,0,0,0-2.289.785,5.057,5.057,0,0,0-1.554,2.284,7.973,7.973,0,0,0-.555,2.755,3.465,3.465,0,0,0,.86,2.474,2.844,2.844,0,0,0,2.165.916,3.394,3.394,0,0,0,2.747-1.38,7.323,7.323,0,0,0,1.582-4.758Z" transform="translate(-15.796 39.244)" fill="#005ba1"/>
    <path id="Path_8" data-name="Path 8" d="M55.288,141.148h3.719l-.6,2.817q2.081-3.159,4.51-3.159a4.671,4.671,0,0,1,1.846.425l-1.526,3.213a3.422,3.422,0,0,0-1.152-.192,3.58,3.58,0,0,0-2.088.765,5.15,5.15,0,0,0-1.658,2.045,20.142,20.142,0,0,0-1.179,4.054l-.971,4.553H52.208Z" transform="translate(-11.137 39.247)" fill="#005ba1"/>
    <path id="Path_9" data-name="Path 9" d="M74.261,149.627H64.27c-.01.156-.014.273-.014.356a3.264,3.264,0,0,0,.839,2.337,2.711,2.711,0,0,0,2.047.889,3.411,3.411,0,0,0,3.095-2.023l3.566.588a7.145,7.145,0,0,1-6.688,4.239,6.544,6.544,0,0,1-4.829-1.853,6.612,6.612,0,0,1-1.859-4.9,8.83,8.83,0,0,1,1.679-5.3,7.6,7.6,0,0,1,6.536-3.144,5.713,5.713,0,0,1,4.3,1.648,6.357,6.357,0,0,1,1.6,4.614A10.813,10.813,0,0,1,74.261,149.627ZM70.9,147.234c.01-.173.014-.305.014-.4a3.488,3.488,0,0,0-.735-2.42,2.537,2.537,0,0,0-1.971-.807,3.152,3.152,0,0,0-2.213.916,4.858,4.858,0,0,0-1.325,2.707Z" transform="translate(-7.846 39.245)" fill="#005ba1"/>
    <path id="Path_10" data-name="Path 10" d="M77.284,145.353l.61-2.912h1.943l.486-2.324,4.566-2.707-1.069,5.031h2.428l-.61,2.912H83.195l-1.29,6.084a18.561,18.561,0,0,0-.347,1.888.884.884,0,0,0,.291.7,1.645,1.645,0,0,0,1.055.253q.263,0,1.318-.1L83.6,157.1a10.738,10.738,0,0,1-2.109.205,4.755,4.755,0,0,1-3.067-.8,2.737,2.737,0,0,1-.957-2.221,20.453,20.453,0,0,1,.513-3.091l1.235-5.839Z" transform="translate(-1.702 37.956)" fill="#005ba1"/>
    <path id="Path_11" data-name="Path 11" d="M87.145,157.1H83.163l4.259-20.043H91.4l-1.526,7.136a10.506,10.506,0,0,1,2.512-1.5,6.764,6.764,0,0,1,2.5-.458,3.886,3.886,0,0,1,2.83,1.012,3.531,3.531,0,0,1,1.041,2.652,14.622,14.622,0,0,1-.388,2.708l-1.8,8.49H92.584l1.845-8.655a12.089,12.089,0,0,0,.292-1.8,1.535,1.535,0,0,0-.458-1.162,1.738,1.738,0,0,0-1.249-.438,3.161,3.161,0,0,0-1.915.684,5.95,5.95,0,0,0-1.817,2.215,19.536,19.536,0,0,0-.916,3.405Z" transform="translate(0.574 37.82)" fill="#005ba1"/>
    <path id="Path_12" data-name="Path 12" d="M100.894,145.27l-3.885-.329a5.77,5.77,0,0,1,2.324-3.036,7.865,7.865,0,0,1,4.392-1.094,6.508,6.508,0,0,1,4.2,1.129,3.455,3.455,0,0,1,1.36,2.755,8.9,8.9,0,0,1-.118,1.395q-.118.737-.826,3.882a19.689,19.689,0,0,0-.582,3.638,7.386,7.386,0,0,0,.333,2.064h-3.871a7.379,7.379,0,0,1-.292-1.641,6.1,6.1,0,0,1-2.012,1.471,5.55,5.55,0,0,1-2.289.512,4.065,4.065,0,0,1-4.218-4.225,4.368,4.368,0,0,1,1.311-3.322,7.713,7.713,0,0,1,4.683-1.5,18.838,18.838,0,0,0,3.8-.56,4.775,4.775,0,0,0,.25-1.313,1.31,1.31,0,0,0-.514-1.052,2.349,2.349,0,0,0-1.526-.425,2.91,2.91,0,0,0-1.686.43A2.138,2.138,0,0,0,100.894,145.27Zm3.788,3.636a8.079,8.079,0,0,1-.957.177,9.188,9.188,0,0,0-3.913,1.04,1.573,1.573,0,0,0-.652,1.325,1.528,1.528,0,0,0,.5,1.156,1.844,1.844,0,0,0,1.318.471,3.531,3.531,0,0,0,1.7-.431,2.968,2.968,0,0,0,1.193-1.108,7.491,7.491,0,0,0,.7-2.112Z" transform="translate(5.345 39.242)" fill="#005ba1"/>
    <path id="Path_13" data-name="Path 13" d="M109.511,141.15h3.774l-.388,1.886a10.4,10.4,0,0,1,2.643-1.715,6.649,6.649,0,0,1,2.588-.514,3.92,3.92,0,0,1,2.865,1.026,3.634,3.634,0,0,1,1.048,2.721,16.986,16.986,0,0,1-.458,2.9l-1.734,8.217h-3.982l1.748-8.244a17.975,17.975,0,0,0,.388-2.2,1.561,1.561,0,0,0-.451-1.182,1.747,1.747,0,0,0-1.255-.431,3.554,3.554,0,0,0-1.943.724,5.066,5.066,0,0,0-1.679,1.914,16.024,16.024,0,0,0-1,3.46l-1.263,5.961h-3.982Z" transform="translate(9.631 39.246)" fill="#005ba1"/>
    <path id="Path_14" data-name="Path 14" d="M139.158,155.575h-3.746l-.722-9.242-4.5,9.242H126.5l-1.845-14.521H128.2l1.027,9.735,4.593-9.735h3.621l.5,9.735,4.565-9.735h4Z" transform="translate(16.703 39.342)" fill="#005ba1"/>
    <path id="Path_15" data-name="Path 15" d="M143.611,157.1h-3.982l4.259-20.043h3.982l-1.526,7.136a10.507,10.507,0,0,1,2.512-1.5,6.772,6.772,0,0,1,2.5-.458,3.889,3.889,0,0,1,2.831,1.012,3.531,3.531,0,0,1,1.039,2.652,14.724,14.724,0,0,1-.387,2.708l-1.8,8.49h-3.983l1.846-8.655a12.056,12.056,0,0,0,.291-1.805,1.532,1.532,0,0,0-.458-1.162,1.737,1.737,0,0,0-1.249-.438,3.162,3.162,0,0,0-1.915.684,5.952,5.952,0,0,0-1.817,2.215,19.536,19.536,0,0,0-.916,3.405Z" transform="translate(22.554 37.82)" fill="#005ba1"/>
    <path id="Path_16" data-name="Path 16" d="M157.36,145.27l-3.885-.329a5.771,5.771,0,0,1,2.323-3.036,7.868,7.868,0,0,1,4.391-1.094,6.515,6.515,0,0,1,4.206,1.129,3.455,3.455,0,0,1,1.359,2.755,8.9,8.9,0,0,1-.118,1.4q-.117.737-.825,3.882a19.58,19.58,0,0,0-.583,3.638,7.415,7.415,0,0,0,.332,2.064h-3.87a7.386,7.386,0,0,1-.292-1.641,6.082,6.082,0,0,1-2.012,1.471,5.555,5.555,0,0,1-2.29.512,4.065,4.065,0,0,1-4.217-4.225,4.366,4.366,0,0,1,1.311-3.322,7.71,7.71,0,0,1,4.684-1.5,18.833,18.833,0,0,0,3.8-.56,4.773,4.773,0,0,0,.249-1.313,1.313,1.313,0,0,0-.512-1.052,2.349,2.349,0,0,0-1.526-.425,2.913,2.913,0,0,0-1.687.43A2.144,2.144,0,0,0,157.36,145.27Zm3.788,3.636a8.047,8.047,0,0,1-.958.177,9.179,9.179,0,0,0-3.912,1.04,1.571,1.571,0,0,0-.652,1.325,1.53,1.53,0,0,0,.5,1.156,1.843,1.843,0,0,0,1.318.471,3.541,3.541,0,0,0,1.7-.431,2.976,2.976,0,0,0,1.193-1.108,7.462,7.462,0,0,0,.7-2.112Z" transform="translate(27.328 39.242)" fill="#005ba1"/>
    <path id="Path_17" data-name="Path 17" d="M163.571,145.353l.61-2.912h1.943l.486-2.324,4.566-2.707-1.069,5.031h2.428l-.611,2.912h-2.442l-1.29,6.084a18.562,18.562,0,0,0-.347,1.888.887.887,0,0,0,.291.7,1.646,1.646,0,0,0,1.055.253c.176,0,.614-.032,1.318-.1l-.624,2.912a10.746,10.746,0,0,1-2.109.205,4.759,4.759,0,0,1-3.067-.8,2.739,2.739,0,0,1-.956-2.221,20.489,20.489,0,0,1,.514-3.091l1.234-5.839Z" transform="translate(31.906 37.956)" fill="#005ba1"/>
    <path id="Path_18" data-name="Path 18" d="M176.352,141.054h3.969l1,7.233q.374,2.788.416,3.91a30.985,30.985,0,0,1,2.136-4.7l3.525-6.441h4.217L182.514,157a22.275,22.275,0,0,1-1.77,2.775,4.654,4.654,0,0,1-1.553,1.244,4.868,4.868,0,0,1-2.186.451,10.819,10.819,0,0,1-2.844-.436l.347-2.926a5.119,5.119,0,0,0,1.4.205q1.831,0,3.01-2.734Z" transform="translate(35.985 39.342)" fill="#005ba1"/>
    <path id="Path_19" data-name="Path 19" d="M186.343,149.643a8.88,8.88,0,0,1,2.31-6.433,8.041,8.041,0,0,1,6.07-2.4,7.02,7.02,0,0,1,5.093,1.772,6.316,6.316,0,0,1,1.832,4.764,8.864,8.864,0,0,1-2.29,6.1,7.807,7.807,0,0,1-6.133,2.57,8.009,8.009,0,0,1-3.69-.82,5.406,5.406,0,0,1-2.4-2.324,6.833,6.833,0,0,1-.79-3.226Zm11.35-2.8a3.055,3.055,0,0,0-.825-2.236,2.852,2.852,0,0,0-2.13-.841,3.6,3.6,0,0,0-2.289.785,5.041,5.041,0,0,0-1.554,2.283,7.973,7.973,0,0,0-.555,2.755,3.463,3.463,0,0,0,.861,2.474,2.841,2.841,0,0,0,2.164.917,3.4,3.4,0,0,0,2.747-1.38,7.319,7.319,0,0,0,1.583-4.758Z" transform="translate(40.735 39.244)" fill="#005ba1"/>
    <path id="Path_20" data-name="Path 20" d="M200.919,141.054H204.9l-1.819,8.6a13.363,13.363,0,0,0-.332,1.927,1.443,1.443,0,0,0,.471,1.081,1.675,1.675,0,0,0,1.208.451,2.862,2.862,0,0,0,1.041-.2,4.467,4.467,0,0,0,1.054-.6,5.569,5.569,0,0,0,.971-.922,5.877,5.877,0,0,0,.806-1.367,12.868,12.868,0,0,0,.568-2.051l1.47-6.919h3.983l-3.081,14.521h-3.718l.416-1.97a7.6,7.6,0,0,1-5.314,2.311,3.894,3.894,0,0,1-2.858-1.025,3.683,3.683,0,0,1-1.041-2.748,18.355,18.355,0,0,1,.471-2.995Z" transform="translate(45.557 39.342)" fill="#005ba1"/>
    <path id="Path_21" data-name="Path 21" d="M216.447,145.353l.61-2.912H219l.486-2.324,4.566-2.707-1.069,5.031h2.428l-.611,2.912h-2.441l-1.29,6.084a18.6,18.6,0,0,0-.347,1.888.886.886,0,0,0,.291.7,1.646,1.646,0,0,0,1.055.253c.176,0,.614-.032,1.318-.1l-.624,2.912a10.746,10.746,0,0,1-2.109.205,4.758,4.758,0,0,1-3.067-.8,2.739,2.739,0,0,1-.957-2.221,20.482,20.482,0,0,1,.514-3.091l1.234-5.839Z" transform="translate(52.5 37.956)" fill="#005ba1"/>
    <path id="Path_22" data-name="Path 22" d="M226.309,157.1h-3.983l4.26-20.043h3.983l-1.526,7.136a10.514,10.514,0,0,1,2.511-1.5,6.772,6.772,0,0,1,2.5-.458,3.887,3.887,0,0,1,2.831,1.012,3.531,3.531,0,0,1,1.041,2.652,14.63,14.63,0,0,1-.388,2.708l-1.8,8.49h-3.982l1.845-8.655a12.13,12.13,0,0,0,.292-1.805,1.533,1.533,0,0,0-.459-1.162,1.733,1.733,0,0,0-1.249-.438,3.161,3.161,0,0,0-1.914.684,5.948,5.948,0,0,0-1.817,2.215,19.515,19.515,0,0,0-.917,3.405Z" transform="translate(54.35 37.82)" fill="#005ba1"/>
    <path id="Path_23" data-name="Path 23" d="M237.555,142.576h3.981L238.457,157.1h-3.982Zm1.165-5.523H242.7l-.75,3.555h-3.981Z" transform="translate(59.219 37.82)" fill="#005ba1"/>
    <path id="Path_24" data-name="Path 24" d="M243.028,141.15H246.8l-.388,1.886a10.409,10.409,0,0,1,2.642-1.715,6.653,6.653,0,0,1,2.589-.513,3.924,3.924,0,0,1,2.865,1.025,3.636,3.636,0,0,1,1.047,2.721,16.988,16.988,0,0,1-.458,2.9l-1.734,8.217h-3.982l1.749-8.244a18,18,0,0,0,.388-2.2,1.559,1.559,0,0,0-.452-1.182,1.744,1.744,0,0,0-1.255-.431,3.552,3.552,0,0,0-1.943.724,5.073,5.073,0,0,0-1.68,1.914,16.05,16.05,0,0,0-1,3.46l-1.263,5.961h-3.982Z" transform="translate(61.413 39.246)" fill="#005ba1"/>
    <path id="Path_25" data-name="Path 25" d="M252.047,157.1l4.26-20.043h3.981l-2.22,10.432,5.19-4.909h5.175l-5.925,5.279,3.15,9.242h-3.983l-2.025-6.713-2.693,2.351-.928,4.362Z" transform="translate(66.262 37.82)" fill="#005ba1"/>
    <path id="Path_26" data-name="Path 26" d="M265.059,148.828H269l-.8,3.788h-3.941Z" transform="translate(71.155 42.298)" fill="#005ba1"/>
    <rect id="Rectangle_2" data-name="Rectangle 2" width="6.129" height="13.113" transform="translate(85.614 59.611)" fill="#e23827"/>
  </g>
</svg>
